<svg width="36" height="28" viewBox="0 0 36 28" fill="none" xmlns="http://www.w3.org/2000/svg">
<path fill-rule="evenodd" clip-rule="evenodd" d="M0.1125 3.99875C0.339341 3.0048 0.896975 2.11733 1.69407 1.48169C2.49117 0.846058 3.48049 0.499931 4.5 0.5H31.5C32.5195 0.499931 33.5088 0.846058 34.3059 1.48169C35.103 2.11733 35.6607 3.0048 35.8875 3.99875L18 14.9315L0.1125 3.99875ZM0 6.56825V22.5522L13.0568 14.5468L0 6.56825ZM15.2123 15.8675L0.42975 24.9283C0.794985 25.6984 1.37143 26.349 2.09201 26.8043C2.81258 27.2595 3.64764 27.5008 4.5 27.5H31.5C32.3522 27.5002 33.187 27.2584 33.9071 26.8027C34.6273 26.347 35.2033 25.6962 35.568 24.926L20.7855 15.8653L18 17.5685L15.2123 15.8653V15.8675ZM22.9432 14.549L36 22.5522V6.56825L22.9432 14.5468V14.549Z" fill="white"/>
</svg>
